<?xml version="1.0" standalone="no"?>
<!DOCTYPE svg PUBLIC "-//W3C//DTD SVG 20010904//EN"
 "http://www.w3.org/TR/2001/REC-SVG-20010904/DTD/svg10.dtd">
<svg version="1.0" xmlns="http://www.w3.org/2000/svg"
 width="2480.000000pt" height="3508.000000pt" viewBox="0 0 2480.000000 3508.000000"
 preserveAspectRatio="xMidYMid meet">

<g transform="translate(0.000000,3508.000000) scale(0.100000,-0.100000)"
fill="#000000" stroke="none">
<path d="M10633 30878 c-110 -111 -193 -206 -274 -313 l-41 -55 -9 -156 c-4
-86 -11 -159 -15 -163 -3 -3 -13 4 -21 16 -8 12 -30 43 -48 69 l-33 46 -27
-42 c-45 -71 -159 -301 -189 -380 -16 -41 -35 -88 -42 -105 -32 -73 -57 -146
-88 -259 -36 -128 -37 -135 -61 -260 l-15 -79 60 -125 c33 -69 58 -127 55
-130 -3 -3 -33 0 -67 6 -33 6 -65 9 -71 5 -7 -4 -8 -82 -3 -227 7 -218 20
-350 50 -516 24 -127 21 -131 -33 -42 -59 96 -117 182 -159 235 l-31 38 -51
-70 c-28 -39 -54 -71 -57 -71 -6 0 5 72 17 115 5 17 11 49 15 71 6 41 6 42
-77 127 -113 115 -339 282 -471 346 -162 79 -152 81 -239 -35 l-73 -97 -3 126
c-2 109 -5 126 -20 131 -174 47 -442 68 -657 49 l-78 -6 -25 -59 c-14 -32 -29
-58 -33 -58 -4 0 -17 20 -29 45 -12 25 -25 47 -30 50 -23 14 -346 -66 -545
-135 -157 -55 -444 -176 -464 -195 -2 -3 6 -36 19 -74 12 -38 20 -74 19 -79
-2 -6 -37 14 -78 44 l-74 54 -86 -46 c-141 -77 -231 -131 -384 -229 -99 -64
-298 -208 -293 -212 2 -2 36 3 75 12 128 27 392 63 541 75 376 30 881 4 1185
-61 145 -31 204 -45 348 -85 458 -128 913 -340 1328 -622 124 -84 306 -222
293 -222 -5 0 -88 39 -184 88 -96 48 -189 92 -205 99 -219 88 -450 161 -476
151 -8 -3 -32 -60 -54 -127 -22 -66 -44 -120 -49 -118 -4 2 -43 70 -85 152
-61 119 -81 151 -101 156 -79 22 -292 31 -465 21 -251 -16 -555 -74 -575 -111
-4 -9 -14 -62 -21 -118 -6 -56 -16 -107 -20 -114 -6 -10 -36 5 -115 59 -59 40
-116 72 -126 72 -46 0 -325 -158 -498 -283 -148 -106 -450 -365 -450 -386 0
-3 72 -72 160 -153 88 -81 156 -149 151 -152 -8 -5 -31 -2 -196 24 -33 5 -98
14 -145 21 -47 6 -107 15 -133 19 -38 6 -52 4 -67 -9 -25 -21 -225 -274 -276
-348 -22 -32 -67 -96 -99 -143 -121 -175 -328 -524 -445 -749 l-32 -61 -84 0
c-49 0 -84 4 -84 10 0 5 9 44 21 85 18 69 19 78 6 99 -27 40 -317 306 -334
306 -17 0 -110 -250 -133 -361 -12 -53 -11 -61 19 -145 17 -50 31 -96 31 -103
0 -9 -15 -4 -44 13 -26 15 -47 22 -51 16 -3 -5 -10 -67 -15 -137 -15 -211 6
-499 48 -644 4 -15 37 -52 74 -84 37 -32 65 -62 62 -66 -2 -5 -20 -11 -39 -15
-46 -8 -45 -23 7 -143 52 -119 97 -203 159 -300 27 -41 47 -76 45 -79 -3 -2
-33 16 -68 41 -90 63 -155 99 -162 89 -3 -5 -8 -28 -12 -51 -9 -57 -30 -38
-40 36 l-7 55 -64 29 c-110 50 -291 90 -417 92 -103 2 -111 1 -114 -18 -8 -45
-33 -125 -40 -125 -4 0 -18 29 -31 65 -14 35 -30 66 -37 69 -6 2 -49 -4 -95
-14 -135 -31 -124 -22 -138 -108 -21 -133 -23 -142 -30 -142 -4 0 -22 38 -40
85 -18 47 -35 85 -37 85 -12 0 -150 -75 -225 -123 -103 -65 -248 -178 -249
-193 0 -6 9 -32 21 -58 11 -26 19 -51 17 -56 -2 -5 -27 2 -57 15 -30 14 -62
23 -71 20 -9 -3 -39 -29 -65 -58 -27 -28 -67 -71 -89 -94 l-40 -43 33 -40 c18
-23 30 -44 27 -47 -3 -3 -26 0 -50 7 -25 7 -52 10 -60 7 -38 -15 -360 -476
-344 -493 2 -2 26 11 54 30 380 254 790 417 1224 485 393 61 710 51 1130 -36
188 -39 184 -42 -65 -42 -126 -1 -261 -6 -300 -11 -38 -5 -74 -9 -78 -10 -5 0
-5 -40 -1 -90 3 -50 3 -90 -2 -90 -5 0 -46 32 -91 70 -45 39 -88 70 -95 70
-13 0 -97 -26 -178 -55 -116 -42 -331 -165 -435 -249 l-29 -24 18 -73 c11 -41
21 -80 24 -86 5 -15 -35 -17 -70 -4 -13 5 -45 11 -73 15 l-50 7 -64 -78 c-35
-43 -94 -123 -130 -178 -77 -117 -201 -359 -204 -400 -2 -27 2 -29 125 -74 69
-25 129 -49 132 -52 4 -3 -67 -25 -156 -48 -90 -24 -170 -46 -177 -50 -8 -4
-19 -21 -23 -37 -42 -147 -63 -231 -91 -364 -35 -168 -61 -344 -77 -520 -19
-219 -26 -216 100 -34 60 87 164 227 230 309 113 141 120 152 114 184 -9 56
-22 176 -18 180 2 2 30 -15 63 -38 34 -22 64 -41 69 -41 4 0 77 72 162 161
335 351 650 615 1042 875 71 47 128 88 128 92 0 5 -13 46 -29 92 -17 46 -28
86 -26 89 3 2 53 -17 113 -43 l109 -47 154 79 c85 44 181 91 214 105 172 73
177 76 160 94 -29 28 -13 38 188 113 42 16 77 26 77 22 0 -11 -184 -192 -194
-192 -5 0 -17 7 -26 15 -16 15 -22 11 -74 -48 -31 -35 -56 -68 -56 -72 0 -4 6
-21 14 -38 23 -49 96 -238 96 -247 0 -4 -48 -11 -107 -15 -60 -4 -114 -12
-121 -18 -20 -16 -79 -158 -117 -280 l-17 -59 51 -52 c28 -28 51 -54 51 -58 0
-3 -31 -24 -69 -47 -78 -46 -73 -34 -86 -201 -4 -41 -12 -86 -20 -100 -12 -23
-10 -28 41 -86 30 -34 54 -65 54 -68 0 -3 -29 -6 -65 -6 l-65 0 0 -40 c0 -85
50 -351 94 -500 l16 -56 78 -27 c42 -16 83 -30 90 -32 6 -3 12 -9 12 -15 0
-12 -79 -120 -87 -120 -9 0 -253 130 -369 196 -62 35 -116 64 -122 64 -26 0
-270 -661 -363 -988 -128 -451 -227 -918 -274 -1302 -8 -69 -19 -159 -25 -200
-9 -76 -21 -220 -40 -476 -13 -177 -13 -756 0 -976 28 -475 100 -995 200
-1433 11 -49 25 -112 31 -140 33 -149 141 -524 207 -720 71 -209 158 -445 192
-520 4 -11 45 -104 89 -207 276 -639 626 -1237 1059 -1808 199 -262 351 -442
591 -700 250 -267 458 -466 741 -706 612 -519 1240 -922 1975 -1269 128 -60
463 -203 555 -237 30 -11 69 -26 87 -34 17 -8 36 -14 42 -14 6 0 19 -4 29 -10
30 -16 392 -135 567 -185 33 -9 71 -21 85 -26 29 -10 418 -105 482 -118 24 -5
88 -18 143 -29 121 -25 445 -80 547 -92 610 -74 1024 -93 1553 -69 518 23 947
76 1415 174 236 50 283 61 395 90 55 15 123 33 150 40 218 56 621 191 890 298
981 390 1841 920 2645 1631 183 162 564 546 735 741 366 416 651 803 930 1260
109 179 149 251 225 405 13 25 78 155 146 289 99 196 200 419 304 676 91 227
208 577 280 840 50 182 110 429 130 530 54 275 89 480 110 635 6 47 15 117 20
155 46 351 73 970 58 1385 -15 451 -70 922 -158 1365 -38 193 -43 214 -100
445 -83 339 -274 923 -370 1135 -5 11 -43 101 -85 200 -256 599 -620 1228
-1028 1775 -72 96 -148 195 -168 220 -21 25 -75 90 -120 145 -165 199 -462
525 -478 525 -6 0 -191 -134 -274 -198 -182 -139 -338 -269 -682 -562 -645
-552 -900 -743 -1173 -879 -182 -91 -247 -111 -577 -175 -125 -25 -316 -80
-382 -111 -17 -8 -33 -15 -36 -15 -3 0 -40 -17 -84 -37 -403 -189 -721 -494
-978 -938 -82 -143 -144 -267 -251 -505 -83 -186 -156 -301 -264 -414 -192
-201 -445 -353 -865 -521 -111 -44 -157 -61 -395 -146 -105 -38 -335 -117
-495 -171 -66 -22 -147 -51 -180 -65 -425 -177 -741 -473 -962 -901 -36 -70
-69 -128 -72 -130 -4 -1 -70 24 -147 56 -256 108 -611 229 -1064 361 -151 45
-288 85 -305 90 -16 5 -64 19 -105 31 -431 126 -812 256 -879 300 l-22 15 26
180 c15 99 31 209 36 245 20 133 101 621 130 780 17 91 34 189 39 219 64 375
243 1230 271 1290 11 24 55 95 97 158 42 63 88 133 101 156 70 126 267 395
402 552 124 143 340 350 444 423 113 80 271 157 444 216 134 47 206 76 361
148 102 48 274 118 289 118 14 0 14 -2 -3 -72 l-13 -58 96 -97 c103 -104 320
-305 382 -354 l38 -30 15 24 c9 13 27 52 41 88 14 35 30 73 35 84 12 27 54
158 74 225 56 198 56 187 19 291 -15 43 -25 80 -22 84 4 3 72 17 151 30 155
25 365 42 598 49 159 4 448 -11 466 -26 13 -10 147 -278 219 -438 26 -58 56
-124 66 -148 33 -73 139 -340 139 -350 0 -5 6 -14 13 -20 11 -9 16 7 26 81 6
51 16 124 21 162 20 143 30 255 41 435 7 102 15 188 18 192 6 7 22 4 156 -31
74 -20 127 -36 454 -138 63 -19 173 -46 245 -59 121 -22 169 -35 328 -93 128
-47 611 -16 863 54 28 8 66 17 85 21 19 3 40 10 45 14 6 4 28 12 50 18 126 34
184 68 286 172 123 124 180 269 130 332 -32 40 -77 48 -277 48 -268 0 -370 31
-501 154 -112 104 -167 256 -143 398 30 177 163 330 385 440 39 19 93 43 121
52 41 13 55 25 80 63 31 50 54 113 54 154 0 39 -22 80 -40 72 -8 -4 -48 -9
-89 -11 -173 -9 -285 78 -299 230 -2 32 -8 61 -13 63 -22 14 -196 26 -484 35
-410 12 -490 28 -591 122 l-47 43 -189 3 -189 3 -52 -56 c-66 -72 -97 -88
-174 -89 -53 -1 -67 3 -104 29 -23 17 -60 56 -83 88 -36 51 -41 65 -44 127 -4
66 -6 71 -31 76 -97 22 -120 39 -138 106 -18 70 -38 286 -29 321 3 15 35 59
70 99 67 78 181 244 231 336 17 30 51 78 76 106 25 28 57 72 72 98 56 97 144
103 350 24 96 -36 453 -126 503 -126 3 0 -18 26 -48 59 -30 32 -62 74 -71 94
-22 46 -22 169 0 253 9 35 14 66 11 69 -3 4 -50 13 -104 21 -55 8 -126 19
-159 24 -33 6 -76 13 -95 16 -71 11 -307 46 -370 55 -36 4 -85 11 -110 14
-157 22 -269 35 -365 45 -60 6 -138 15 -171 20 -34 6 -83 10 -110 10 -65 0
-244 22 -244 30 0 4 28 31 63 59 34 29 92 82 129 118 l68 65 -14 101 c-28 200
-29 187 9 187 18 0 55 -4 82 -10 135 -27 153 -28 173 -11 63 55 410 512 410
540 0 16 -296 105 -332 99 -13 -2 -32 -25 -52 -63 -18 -33 -59 -107 -91 -165
l-60 -105 -5 190 -5 190 -60 7 c-236 28 -653 33 -779 10 -39 -7 -40 -8 -79
-109 -23 -56 -45 -99 -51 -97 -6 3 -37 41 -70 85 -40 55 -63 78 -75 75 -9 -2
-32 -7 -51 -11 -89 -16 -308 -86 -442 -140 -109 -45 -248 -115 -374 -188 l-71
-41 -18 -102 c-10 -57 -22 -109 -26 -116 -6 -9 -20 -7 -61 10 -29 12 -59 22
-66 22 -18 0 -15 28 17 131 55 174 102 435 116 639 l7 95 -77 85 c-42 47 -90
102 -107 123 l-30 37 103 0 102 0 -6 123 c-12 225 -106 708 -146 748 -9 8 -71
38 -139 64 -87 35 -121 53 -117 63 3 7 39 58 81 112 l75 99 -44 113 c-89 227
-228 528 -245 528 -4 0 -58 -51 -119 -112z m-1563 -4155 c119 22 786 53 852
40 24 -5 11 -14 -99 -69 -160 -81 -210 -113 -217 -139 -3 -11 -6 -75 -6 -142
0 -68 -2 -123 -5 -123 -3 0 -57 18 -121 40 -64 22 -124 40 -134 40 -39 0 -313
-277 -424 -429 l-39 -53 18 -52 c10 -28 22 -55 26 -61 22 -23 5 -33 -73 -46
-90 -15 -101 -22 -143 -102 -138 -260 -227 -479 -298 -732 -42 -149 -95 -432
-112 -591 l-7 -60 105 -101 c58 -55 102 -104 99 -110 -4 -5 -55 -37 -113 -71
l-106 -62 -6 -76 c-6 -76 7 -470 19 -577 6 -53 8 -57 28 -51 52 15 222 91 335
150 68 35 127 64 132 64 5 0 5 -10 -1 -22 -5 -13 -22 -68 -39 -124 -24 -77
-36 -103 -53 -112 -42 -21 -102 -43 -223 -84 -276 -92 -328 -120 -407 -217
-18 -21 -18 -20 -130 93 -62 62 -139 132 -171 156 l-57 42 -78 -31 c-43 -17
-84 -31 -91 -31 -10 0 -12 20 -6 88 l7 88 -99 46 c-105 50 -189 82 -256 99
-104 26 -188 41 -265 47 l-83 8 -65 -83 c-72 -90 -94 -102 -94 -50 0 17 -3 56
-7 86 l-6 54 -121 -7 -121 -6 25 20 c68 56 181 162 232 217 l57 62 -6 107 c-6
119 -10 116 63 58 l42 -34 24 33 c71 94 185 300 242 435 l27 64 -46 78 c-25
44 -45 84 -45 89 0 6 19 15 43 21 23 6 62 17 87 23 l44 13 28 89 c34 107 88
327 88 355 0 13 -7 20 -17 20 -39 -1 -213 -27 -219 -33 -3 -3 -12 -58 -20
-123 -12 -106 -18 -135 -27 -123 -2 2 -20 49 -41 104 -22 55 -42 104 -46 109
-17 18 -274 -73 -452 -161 l-108 -53 0 -75 c0 -49 -4 -75 -11 -75 -6 0 -36 14
-66 31 l-54 31 -37 -25 c-60 -39 -120 -92 -226 -195 -116 -114 -207 -230 -257
-326 -44 -86 -59 -94 -59 -31 0 116 -92 468 -132 504 -10 9 -54 32 -98 51 -44
19 -80 38 -80 41 0 4 27 17 60 29 33 12 60 27 60 32 0 31 -204 364 -277 451
l-23 29 22 17 c90 70 480 299 728 429 69 35 128 68 132 71 4 3 27 73 51 154
24 81 47 151 51 155 4 3 11 0 16 -8 49 -85 114 -180 122 -180 5 0 74 29 151
64 378 171 752 311 1167 437 41 13 81 27 88 32 8 6 12 37 12 86 l1 76 60 -66
60 -66 67 19 c147 42 598 137 745 158 48 7 89 16 92 20 3 4 7 61 11 126 9 192
-4 189 143 35 124 -131 128 -134 161 -128z m1269 -1458 c1 -98 18 -251 30
-274 5 -9 37 -27 70 -40 34 -13 61 -29 61 -35 0 -6 -21 -38 -46 -71 -51 -68
-51 -67 -9 -210 45 -151 73 -229 115 -322 17 -36 30 -69 30 -74 0 -10 -82 -36
-140 -44 -25 -4 -58 -10 -75 -15 -67 -21 -468 -80 -477 -71 -8 7 1 41 72 266
20 66 52 167 70 225 49 158 256 781 271 815 l13 30 7 -50 c4 -27 8 -86 8 -130z
m-3896 -2440 c292 -104 690 -291 901 -423 l39 -24 51 20 c92 36 86 39 80 -31
l-6 -62 186 -124 c102 -68 188 -127 191 -131 3 -5 -16 -28 -41 -52 -60 -56
-128 -145 -150 -194 -9 -21 -20 -47 -25 -56 -15 -30 -10 -173 7 -225 57 -170
245 -351 432 -418 52 -19 54 -21 48 -50 -9 -46 -21 -98 -83 -370 l-58 -249
-35 -8 c-34 -8 -172 -31 -395 -68 -208 -34 -287 -51 -378 -82 -168 -56 -260
-119 -329 -224 l-41 -63 -36 15 c-74 30 -82 42 -107 154 -68 312 -214 906
-279 1135 -70 245 -86 307 -82 312 3 2 41 3 86 1 l82 -3 -46 -49 c-25 -26 -45
-52 -43 -57 11 -31 270 -213 438 -307 l55 -31 71 33 c100 47 111 50 118 29 5
-17 26 -140 26 -155 0 -20 432 -179 447 -165 18 19 -7 390 -29 432 -6 11 -40
51 -75 90 -65 72 -75 90 -45 81 59 -16 82 -17 82 -3 0 18 -56 200 -69 224 -8
16 -195 83 -230 83 -29 0 -5 30 55 69 36 24 68 49 71 57 7 20 -130 246 -184
302 -6 7 -39 45 -72 85 -92 111 -250 247 -406 350 -83 55 -283 163 -330 178
-14 5 -15 7 -4 8 8 1 59 -15 112 -34z m1661 -381 c10 -26 7 -52 -6 -56 -19 -7
-108 3 -108 11 0 7 89 60 101 61 4 0 10 -7 13 -16z m-2254 -971 c0 -5 11 -62
25 -128 39 -184 73 -354 85 -420 6 -33 31 -169 55 -303 42 -229 50 -282 41
-282 -2 0 -82 30 -177 66 -96 36 -228 84 -294 106 -66 21 -124 43 -128 47 -4
4 1 18 11 32 66 84 179 290 237 429 50 123 102 300 120 418 4 23 11 42 16 42
5 0 9 -3 9 -7z m1986 -1870 c-3 -16 -11 -59 -18 -96 -9 -52 -16 -67 -28 -65
-26 5 -260 162 -260 176 0 9 38 12 156 12 l156 0 -6 -27z m4263 -2112 c64 -38
202 -128 306 -200 396 -272 696 -453 691 -416 -1 8 -18 27 -36 43 -19 15 -52
43 -75 63 -40 35 -163 136 -339 277 -50 41 -145 109 -211 153 -65 43 -116 79
-112 79 4 0 105 -49 225 -109 249 -125 367 -179 642 -296 301 -128 336 -144
470 -213 150 -77 225 -125 384 -244 66 -50 126 -92 133 -95 7 -3 13 -10 13
-15 0 -12 -5 -11 -145 25 -123 32 -334 75 -396 80 -33 4 -46 1 -46 -9 0 -7 3
-12 6 -11 3 1 35 -15 71 -35 36 -20 112 -57 169 -83 171 -76 270 -129 382
-203 102 -67 132 -92 110 -92 -32 0 -224 55 -326 93 -571 214 -966 412 -1292
646 -160 114 -220 164 -383 317 -84 79 -197 175 -285 244 -124 95 -115 95 44
1z m2676 -21 c181 -31 545 -108 621 -131 291 -88 428 -266 355 -459 -10 -27
-46 -85 -79 -128 -96 -125 -108 -164 -78 -236 25 -59 94 -106 454 -306 112
-62 201 -114 200 -116 -5 -4 -630 246 -686 275 -58 30 -108 76 -140 130 -24
41 -27 56 -27 136 0 97 2 104 90 265 42 75 41 106 0 169 -30 44 -128 128 -215
183 -140 89 -279 143 -510 200 -183 44 -177 51 15 18z m1850 -1321 c335 -84
381 -101 645 -232 l185 -92 -160 -3 c-185 -3 -266 10 -415 65 -113 42 -225
100 -373 194 -103 65 -337 234 -337 243 0 3 57 -25 128 -60 112 -57 151 -71
327 -115z m1345 -410 c218 -28 683 -105 820 -135 189 -42 421 -122 483 -166
46 -33 107 -117 107 -148 0 -15 -9 -39 -21 -54 -31 -40 -77 -35 -179 19 -131
70 -194 98 -335 148 -192 68 -727 239 -910 291 -88 25 -182 52 -210 60 l-50
15 70 -5 c39 -3 140 -14 225 -25z m-306 -1004 c233 -166 432 -352 562 -525
294 -391 311 -692 54 -963 -45 -47 -121 -115 -170 -152 -80 -59 -108 -90 -96
-102 3 -3 46 0 98 5 51 6 97 7 102 2 13 -13 -70 -96 -122 -121 -62 -29 -181
-32 -229 -6 -71 38 -88 107 -49 194 21 44 48 78 119 143 212 196 266 256 300
327 30 64 32 74 32 178 0 125 -15 177 -89 325 -125 249 -329 498 -576 704 -52
44 -102 86 -110 94 -27 27 89 -42 174 -103z m1446 -19 c0 -2 -37 -26 -81 -52
-184 -107 -322 -300 -304 -424 18 -123 128 -213 352 -285 46 -14 85 -31 88
-36 8 -12 6 -12 -155 6 -190 20 -287 57 -362 139 -64 68 -94 169 -77 260 14
80 41 130 103 191 60 57 131 95 301 159 119 45 135 50 135 42z m939 -1342 c55
-33 52 -73 -7 -91 -62 -19 -187 -49 -367 -88 -187 -40 -318 -70 -500 -117 -66
-16 -145 -36 -175 -43 -30 -7 -136 -33 -235 -58 -298 -75 -311 -74 -112 3 416
163 1061 378 1237 413 45 9 129 -1 159 -19z"/>
<path d="M16805 24335 c-16 -9 -36 -22 -44 -30 -11 -11 -19 -11 -47 1 -108 45
-246 -31 -248 -137 -1 -51 17 -61 38 -22 52 102 172 136 208 58 9 -21 8 -27
-13 -44 -20 -16 -21 -21 -10 -35 21 -25 74 -30 135 -12 63 19 89 48 57 66 -11
5 -31 10 -45 10 -34 0 -40 14 -20 45 23 35 55 40 152 26 93 -13 137 -2 137 34
0 26 -65 45 -180 51 -71 4 -96 2 -120 -11z"/>
<path d="M19791 24179 c-181 -68 -561 -260 -561 -282 0 -5 35 -45 78 -90 79
-85 210 -230 253 -281 13 -16 42 -50 64 -76 242 -283 588 -756 766 -1048 24
-40 57 -94 73 -120 399 -650 757 -1471 969 -2222 163 -574 278 -1209 317
-1735 6 -82 12 -170 15 -195 2 -25 9 -205 16 -401 13 -356 4 -717 -22 -901 -5
-37 -9 -90 -9 -119 0 -29 -4 -80 -9 -113 -5 -34 -15 -108 -21 -166 -6 -58 -18
-150 -26 -205 -14 -94 -19 -125 -44 -272 -71 -417 -189 -881 -336 -1321 -64
-193 -211 -579 -266 -702 -16 -36 -36 -78 -43 -95 -37 -83 -73 -161 -121 -263
-30 -62 -54 -117 -54 -122 0 -4 -10 -21 -23 -37 -13 -15 -45 -71 -72 -123 -27
-52 -70 -133 -97 -179 -26 -46 -48 -85 -48 -87 0 -7 -198 -332 -269 -443 -442
-688 -1060 -1404 -1652 -1916 -19 -16 -68 -60 -109 -96 -357 -313 -956 -735
-1410 -991 -308 -174 -718 -378 -950 -472 -36 -15 -74 -31 -85 -36 -58 -27
-278 -110 -450 -172 -574 -205 -1192 -355 -1800 -438 -818 -111 -1693 -111
-2500 0 -447 62 -940 168 -1375 297 -99 29 -466 150 -495 163 -11 5 -45 17
-75 28 -76 27 -334 129 -384 152 -23 10 -72 32 -109 49 -38 17 -70 31 -72 31
-7 0 -232 108 -367 176 -347 174 -650 352 -992 582 -239 161 -438 309 -726
543 -225 182 -673 607 -911 864 -167 181 -384 441 -561 675 -442 585 -813
1219 -1103 1885 -58 132 -165 400 -165 411 0 3 -6 20 -14 37 -29 66 -139 388
-181 532 -152 514 -242 925 -311 1430 -95 698 -108 1513 -34 2178 22 195 32
275 40 332 15 99 40 256 50 315 25 140 42 228 50 265 5 22 16 74 25 115 33
153 102 422 144 570 64 218 212 660 251 745 5 11 23 56 40 100 17 44 35 89 40
100 65 142 68 156 33 176 -15 8 -89 51 -163 94 -74 43 -155 89 -180 103 -235
130 -248 137 -254 131 -5 -5 -91 -208 -134 -314 -166 -411 -341 -963 -436
-1375 -15 -63 -33 -142 -41 -175 -8 -33 -25 -118 -39 -190 -29 -148 -41 -209
-56 -280 -5 -27 -15 -86 -21 -130 -6 -44 -14 -105 -19 -135 -66 -446 -107
-1086 -96 -1504 15 -626 47 -993 126 -1481 32 -196 87 -492 96 -515 3 -8 12
-44 19 -80 28 -139 95 -407 129 -518 8 -26 24 -81 36 -122 12 -41 25 -82 29
-90 5 -9 12 -31 16 -50 8 -39 42 -147 55 -170 4 -9 11 -30 15 -49 4 -18 13
-44 21 -59 8 -15 14 -32 14 -38 0 -11 101 -288 120 -329 5 -11 19 -45 30 -75
26 -66 26 -66 86 -205 94 -223 269 -588 364 -760 15 -27 45 -81 66 -120 20
-38 50 -92 66 -118 15 -26 28 -50 28 -52 0 -3 19 -35 43 -72 24 -38 46 -75 50
-83 4 -8 31 -53 61 -100 30 -47 73 -116 97 -155 23 -38 45 -72 48 -75 10 -9
51 -69 51 -75 0 -6 35 -58 55 -81 6 -7 30 -42 55 -79 39 -57 185 -257 260
-356 22 -28 170 -214 255 -320 96 -118 437 -494 559 -614 286 -283 491 -470
771 -704 355 -296 993 -735 1370 -941 33 -18 74 -41 90 -51 17 -10 41 -24 55
-32 46 -27 595 -302 630 -316 19 -8 64 -28 100 -44 36 -16 81 -35 100 -43 52
-23 69 -30 143 -63 38 -17 72 -31 77 -31 4 0 21 -7 36 -15 16 -8 36 -15 45
-15 8 0 19 -4 25 -8 5 -5 32 -17 59 -26 28 -10 64 -24 82 -32 17 -8 38 -14 46
-14 9 0 18 -4 22 -9 3 -5 20 -13 37 -17 18 -3 39 -10 48 -15 18 -10 282 -97
390 -129 106 -31 129 -38 183 -55 26 -8 54 -15 62 -15 9 0 23 -4 33 -9 9 -5
49 -17 87 -26 39 -9 84 -21 100 -26 71 -21 284 -69 308 -69 14 0 28 -4 31 -9
3 -4 25 -11 48 -15 24 -3 79 -13 123 -21 44 -9 100 -20 125 -25 25 -5 88 -16
140 -24 52 -9 106 -18 120 -20 29 -5 132 -21 240 -36 204 -29 535 -57 955 -80
293 -16 897 1 1265 36 211 19 421 43 450 49 14 3 84 14 155 25 273 42 593 104
790 154 33 8 91 22 128 30 37 9 89 22 115 30 26 8 72 21 102 29 61 17 178 51
255 74 84 26 379 123 400 132 11 5 49 19 85 32 72 25 334 124 365 139 55 25
115 50 119 50 3 0 34 13 68 29 170 78 220 101 224 101 16 0 539 268 635 326
31 19 59 34 62 34 7 0 274 158 367 217 159 100 432 283 535 358 106 77 269
198 283 210 9 8 46 38 82 66 36 28 83 66 105 85 22 18 72 59 111 91 569 468
1210 1151 1652 1763 34 47 65 90 69 95 9 11 77 110 177 259 37 54 101 153 142
220 41 67 79 128 84 136 25 41 90 151 117 200 138 247 182 330 264 496 52 104
105 214 118 244 13 30 34 79 47 108 13 29 24 54 24 57 0 2 14 34 31 72 27 61
38 86 69 158 4 11 22 56 39 100 18 44 36 88 41 97 6 10 10 23 10 29 0 6 6 25
14 42 47 111 142 385 206 597 17 58 35 116 40 130 4 14 16 54 25 90 9 36 21
74 26 85 4 11 12 40 18 65 12 56 48 203 61 250 5 19 17 69 25 110 9 41 20 91
25 110 5 19 16 73 25 120 22 118 33 177 44 235 6 28 13 73 16 100 4 28 10 73
15 100 30 172 64 463 90 770 17 201 32 828 26 1035 -16 479 -60 939 -131 1350
-43 250 -66 371 -95 495 -11 50 -27 119 -35 155 -68 308 -245 890 -361 1189
-113 288 -210 521 -301 715 -63 135 -237 476 -279 549 -19 32 -34 60 -34 62 0
7 -228 392 -278 470 -265 411 -506 742 -780 1070 -141 169 -291 335 -300 335
-4 -1 -54 -19 -111 -41z"/>
<path d="M16915 23976 c-39 -18 -79 -63 -94 -105 -17 -51 2 -60 32 -16 32 48
73 75 112 75 39 0 51 -9 57 -42 4 -22 1 -27 -24 -32 -30 -6 -38 -30 -12 -40 9
-3 45 -6 80 -6 49 0 64 3 64 14 0 8 -9 18 -21 21 -16 5 -18 10 -8 21 17 20 69
17 109 -6 76 -44 98 -51 125 -38 14 6 25 16 25 22 0 18 -105 95 -152 112 -24
8 -65 14 -93 13 -27 -1 -63 3 -78 9 -37 16 -85 15 -122 -2z"/>
<path d="M17815 23741 c-96 -7 -122 -17 -153 -56 -17 -22 -24 -24 -47 -15 -52
20 -112 12 -145 -17 -45 -40 -55 -96 -33 -175 9 -36 30 -18 36 32 9 79 38 109
104 110 13 0 30 -11 40 -26 17 -26 17 -27 -12 -50 -36 -29 -28 -38 24 -29 52
9 103 43 115 78 13 36 1 44 -34 23 -39 -22 -39 -4 -1 35 26 25 37 29 88 30 89
1 155 14 170 35 27 37 28 37 -152 25z"/>
<path d="M16817 23590 c-44 -13 -95 -57 -117 -100 -32 -63 -22 -85 15 -31 25
39 84 71 126 71 65 -1 93 -46 78 -125 -11 -58 -5 -82 22 -90 27 -9 49 11 49
44 0 33 33 71 61 71 38 0 58 -20 100 -101 51 -98 89 -139 130 -139 35 0 38 21
8 65 -11 17 -35 60 -54 96 -62 121 -113 163 -196 161 -40 -1 -48 3 -58 24 -12
26 -82 64 -116 63 -11 0 -33 -5 -48 -9z"/>
<path d="M17945 23400 c-16 -4 -54 -8 -83 -9 -57 -1 -109 -19 -130 -43 -12
-14 -17 -15 -51 -1 -35 14 -42 14 -75 -2 -19 -9 -45 -32 -56 -50 -24 -38 -35
-114 -21 -135 9 -13 14 -12 33 8 19 18 20 24 9 31 -22 14 18 75 51 79 21 3 30
-3 43 -28 23 -45 89 -73 154 -64 26 3 54 10 61 14 21 13 4 38 -44 62 -62 31
-49 47 53 63 90 15 114 28 109 58 -4 24 -13 27 -53 17z"/>
<path d="M16276 23283 c-29 -29 -43 -70 -29 -84 6 -6 20 2 38 21 16 16 37 30
47 30 19 0 38 -28 38 -57 0 -44 82 -113 134 -113 63 0 73 30 26 75 -16 16 -30
35 -30 42 0 17 48 16 124 -2 63 -15 112 -11 120 10 8 21 -25 43 -104 70 -82
28 -156 32 -185 11 -17 -12 -23 -12 -46 5 -41 29 -100 25 -133 -8z"/>
<path d="M16964 23071 c-17 -10 -38 -34 -47 -54 -29 -60 -18 -76 22 -33 32 34
74 48 96 32 15 -11 16 -19 7 -59 -9 -45 -8 -48 17 -65 24 -17 76 -42 86 -42
16 0 1 42 -20 56 -33 21 -32 37 6 68 45 38 75 34 123 -18 48 -50 68 -59 91
-42 16 11 13 17 -25 69 -55 74 -111 98 -173 76 -39 -13 -42 -13 -64 9 -27 27
-77 29 -119 3z"/>
<path d="M16220 22931 c-14 -5 -39 -15 -56 -24 -47 -24 -125 -117 -99 -117 3
0 28 16 56 35 56 38 120 60 153 51 47 -12 59 -31 67 -106 9 -80 25 -112 72
-140 l32 -20 9 36 c5 23 5 49 -2 72 -13 41 -9 52 19 52 30 0 57 -17 119 -73
56 -51 132 -93 150 -82 6 3 10 18 10 32 0 19 -18 43 -67 90 -103 97 -188 133
-260 109 -17 -5 -23 -3 -23 6 0 19 -49 64 -83 77 -32 12 -61 13 -97 2z"/>
</g>
</svg>
